<svg xmlns="http://www.w3.org/2000/svg" width="512" height="512" viewBox="0 0 39.523 39.524"><path d="M39.516 28.639c0-2.971-2.104-5.508-5.057-6.506a6.714 6.714 0 0 0 1.029-1.842c.408-.248.719-.682.852-1.205.115-.463.369-1.477-.173-2.041v-.438c.022-.783.085-2.812-1.604-3.701a1.696 1.696 0 0 1-.053-.299l-.221-2.232-1.6 1.509c-.188.141-1.211.391-2.17.485l-.398.062c-2.996.472-2.948 2.199-2.91 3.588.005.177.01.361.01.572l.014.396c-.301.336-.508.948-.232 2.075.124.509.451.947.854 1.171a7.596 7.596 0 0 0 1.084 1.891c-1.272.428-2.393 1.135-3.252 2.043-.717-.4-1.486-.73-2.301-.98.768-.865 1.344-1.926 1.708-2.935.57-.319 1.021-.93 1.198-1.643.164-.648.527-2.097-.254-2.816v-.737c.051-1.736-.139-4.14-2.299-5.211a2.603 2.603 0 0 1-.106-.564l-.272-2.783-1.998 1.885c-.239.215-1.776.604-3.26.752l-.576.092c-4.151.652-4.09 2.949-4.033 4.979.008.259.015.527.015.828l.021.666c-.424.424-.744 1.254-.349 2.875.177.707.642 1.313 1.196 1.59.271.705.845 1.961 1.77 3.018-.82.25-1.598.584-2.318.988-.854-.904-1.961-1.606-3.223-2.033a6.686 6.686 0 0 0 1.029-1.842c.408-.247.719-.682.852-1.204.115-.464.369-1.478-.172-2.041v-.438c.022-.783.084-2.812-1.605-3.701a1.912 1.912 0 0 1-.053-.299l-.219-2.231-1.601 1.508c-.189.14-1.214.39-2.173.484l-.396.062c-2.998.472-2.949 2.199-2.912 3.589.006.176.01.36.01.571l.014.396c-.301.336-.509.951-.232 2.076.123.508.451.946.852 1.17a7.649 7.649 0 0 0 1.084 1.892C2.119 23.121 0 25.665 0 28.646v.5h9.306a8.806 8.806 0 0 0-.687 3.381v.5h22.284v-.5c0-1.188-.25-2.324-.687-3.381h9.308v-.503h-.008v-.004zm-3.7-.5v-1.272a.5.5 0 0 0-1 0v1.272h-5.09c-.756-1.348-1.845-2.521-3.175-3.435a6.704 6.704 0 0 1 1.853-1.295c.754 1.048 1.969 1.683 3.277 1.683s2.523-.635 3.278-1.683c1.957.938 3.336 2.688 3.53 4.729h-2.673v.001zm-10.289 3.882v-2.074a.5.5 0 0 0-1 0v2.074h-9.548v-2.074a.5.5 0 0 0-1 0v2.074H9.627a7.91 7.91 0 0 1 .759-2.882c.08-.168.16-.336.251-.5.096-.17.196-.336.303-.5h.02v-.03c.291-.442.627-.86.998-1.252a9.832 9.832 0 0 1 1.648-1.394c.137-.093.278-.179.422-.265.142-.086.285-.168.432-.248.202-.106.404-.218.615-.312a5.63 5.63 0 0 0 4.68 2.508 5.639 5.639 0 0 0 4.681-2.51c.211.098.412.207.614.312a12.394 12.394 0 0 1 .855.512 9.645 9.645 0 0 1 2.645 2.647v.031h.021c.104.164.207.33.303.5.091.164.171.332.251.5.424.896.694 1.863.759 2.881l-4.357.002zM4.192 26.366a.5.5 0 0 0-.5.5v1.273H1.016c.195-2.041 1.574-3.789 3.531-4.729a4.039 4.039 0 0 0 3.277 1.683c1.31 0 2.523-.635 3.279-1.683a6.835 6.835 0 0 1 1.852 1.295c-1.33.914-2.419 2.087-3.174 3.435h-5.09v-1.272a.498.498 0 0 0-.499-.502zm1.696-3.449c.533.406 1.173.695 1.949.695.749 0 1.399-.268 1.954-.686.109.025.217.062.324.098a3.028 3.028 0 0 1-2.291 1.068 3.042 3.042 0 0 1-2.305-1.064c.124-.039.244-.078.369-.111zm-1.114-3.461l-.24-.074c-.149-.045-.348-.266-.42-.557-.183-.746-.09-1.115.045-1.203l.234-.154-.029-.891c0-.205-.004-.398-.01-.584-.037-1.348-.062-2.238 2.066-2.572l.37-.059c.021-.002 2.165-.223 2.72-.742l.126-.119.021.207c.023.248.082.502.17.732l.074.197.194.086c.9.389 1.265 1.242 1.216 2.869v.985l.256.146c.033.018.187.16-.055 1.123-.074.293-.262.539-.477.629l-.211.086-.072.217c-.244.721-.672 1.498-1.243 2.061a3.14 3.14 0 0 1-.53.421c-.345.213-.724.354-1.142.354a2.16 2.16 0 0 1-1.167-.354 3.011 3.011 0 0 1-.521-.424c-.717-.713-1.138-1.723-1.289-2.146l-.086-.234zm10.377-.082l-.24-.072c-.272-.082-.633-.451-.762-.971-.252-1.031-.192-1.756.16-1.988l.231-.154-.035-1.172c0-.297-.007-.578-.015-.844-.055-2.002-.096-3.445 3.188-3.963l.551-.086c.029-.004 3.08-.324 3.814-1.016l.52-.488.071.74c.006.084.043.521.233 1.023l.074.196.193.084c1.766.765 1.951 2.634 1.898 4.373v1.299l.257.146c.293.164.303.797.026 1.885-.123.49-.445.908-.822 1.062l-.209.088-.073.215c-.376 1.113-1.047 2.316-1.952 3.166a5.033 5.033 0 0 1-.499.41 3.734 3.734 0 0 1-.726.406c-.396.17-.814.283-1.27.283-.479 0-.916-.105-1.316-.281a3.734 3.734 0 0 1-.707-.408 4.824 4.824 0 0 1-.5-.41c-1.129-1.076-1.777-2.641-2.012-3.287l-.078-.236zm4.621 5.625c1.06 0 1.985-.4 2.771-1.018.322.08.637.174.945.281a4.644 4.644 0 0 1-7.468 0c.312-.109.633-.203.961-.285.756.602 1.677 1.022 2.791 1.022zm9.972-2.082c.533.406 1.174.695 1.949.695.75 0 1.398-.268 1.955-.686.108.025.217.062.322.098a3.026 3.026 0 0 1-2.29 1.068 3.042 3.042 0 0 1-2.305-1.064c.125-.039.244-.078.369-.111zm-1.114-3.461l-.239-.074c-.15-.045-.349-.266-.42-.557-.182-.746-.089-1.115.045-1.203l.233-.154-.028-.891c0-.205-.005-.398-.01-.584-.037-1.348-.062-2.238 2.066-2.572l.369-.059c.021-.002 2.166-.223 2.721-.742l.127-.119.02.195c.008.111.042.406.17.744l.073.197.194.086c.899.389 1.265 1.242 1.216 2.869v.985l.256.146c.033.018.187.16-.054 1.123-.074.293-.262.539-.478.629l-.211.086-.071.217c-.244.721-.672 1.498-1.244 2.061a3.091 3.091 0 0 1-.529.422c-.346.213-.725.354-1.143.354-.438 0-.826-.139-1.166-.354a3.018 3.018 0 0 1-.522-.424c-.716-.713-1.138-1.723-1.289-2.146l-.086-.235z" fill="#96885a"/></svg>