<svg fill="#fff" xmlns="http://www.w3.org/2000/svg" width="392.92" height="145.727" viewBox="0 0 392.92 145.727"><path d="M0 0h37.85v62.65c0 .514 2.901 5.197 8.19 7.529 5.515 2.432 9.284 2.392 9.284 2.392V0h37.85v62.65c0 .824 1.541 4.72 7.378 7.404 5.155 2.37 9.691 2.518 9.691 2.518V0h10.097v44.074h31.901V0h37.152v110.301h-37.152V65.073H120.34v45.229H97.052c-4.577 0-12.739-4.574-18.047-8.616-5.382-4.098-14.393-14.538-14.393-14.538v23.153H41.325c-5.225 0-20.571-9.034-28.537-16.691C7.44 88.469 0 79.775.404 62.65L0 0zm198.276 0h29.884v110.301l-30.061-1.076zM338.27 0c-49.16 0-55.594 47.468-55.594 53.497 0 14.025 3.366 19.074 3.366 19.074s-4.462-1.127-7.809-4.402c-2.372-2.322-3.634-4.148-3.634-6.865v-34.19h8.076V6.922H274.6V0h-37.151v62.65c0 32.724 40.412 47.651 45.228 47.651h55.863c43.181 0 54.381-40.652 54.381-40.652s-29.883-1.345-30.959 0c-1.077 1.346-4.577 12.923-23.961 12.923-19.383 0-25.307-19.922-25.307-19.922h80.227v-9.422C392.92 38.795 387.431 0 338.27 0zm-22.615 41.651c0-4.98 9.448-14.537 24.095-14.537s22.615 14.537 22.615 14.537h-46.71zM2 121.939h4.622c2.65 0 4.438.116 5.363.347 1.325.326 2.408.997 3.25 2.012.841 1.015 1.262 2.29 1.262 3.825 0 1.546-.41 2.821-1.23 3.825-.82 1.005-1.951 1.68-3.391 2.027-1.052.252-3.019.378-5.9.378H4.318v10.79H2v-23.204zm2.318 2.271v7.871l3.928.047c1.588 0 2.75-.144 3.486-.433a3.569 3.569 0 0 0 1.735-1.401 3.876 3.876 0 0 0 .631-2.165c0-.776-.21-1.487-.631-2.133a3.48 3.48 0 0 0-1.664-1.377c-.689-.272-1.817-.409-3.384-.409H4.318zm13.554-2.271h2.319v9.732h11.815v-9.732h2.319v23.204h-2.319v-11.2H20.19v11.2h-2.319v-23.204zm29.919-.584c3.515 0 6.456 1.173 8.824 3.518 2.367 2.345 3.552 5.232 3.552 8.661 0 3.396-1.182 6.278-3.544 8.644s-5.243 3.549-8.642 3.549c-3.441 0-6.345-1.178-8.713-3.534-2.368-2.355-3.551-5.206-3.551-8.55 0-2.229.539-4.295 1.618-6.199 1.079-1.903 2.549-3.394 4.412-4.472a11.863 11.863 0 0 1 6.044-1.617zm.103 2.256c-1.717 0-3.345.447-4.882 1.342-1.538.895-2.739 2.1-3.603 3.615-.863 1.516-1.295 3.205-1.295 5.068 0 2.757.956 5.086 2.868 6.985 1.912 1.9 4.216 2.85 6.913 2.85 1.801 0 3.468-.437 5-1.311a9.38 9.38 0 0 0 3.586-3.583c.858-1.516 1.288-3.2 1.288-5.052 0-1.842-.429-3.507-1.288-4.996-.858-1.49-2.067-2.681-3.626-3.576-1.56-.895-3.213-1.342-4.961-1.342zm11.392.599v-2.271H72v2.271h-5.174v20.932H64.46V124.21h-5.174zm23.877-2.855c3.515 0 6.456 1.173 8.824 3.518 2.367 2.345 3.552 5.232 3.552 8.661 0 3.396-1.182 6.278-3.544 8.644-2.362 2.366-5.243 3.549-8.642 3.549-3.441 0-6.346-1.178-8.713-3.534-2.368-2.355-3.552-5.206-3.552-8.55 0-2.229.54-4.295 1.618-6.199 1.078-1.903 2.549-3.394 4.412-4.472a11.869 11.869 0 0 1 6.045-1.617zm.103 2.256c-1.717 0-3.345.447-4.883 1.342-1.538.895-2.739 2.1-3.602 3.615-.864 1.516-1.295 3.205-1.295 5.068 0 2.757.956 5.086 2.868 6.985 1.911 1.9 4.216 2.85 6.913 2.85 1.8 0 3.468-.437 5-1.311a9.375 9.375 0 0 0 3.587-3.583c.858-1.516 1.288-3.2 1.288-5.052 0-1.842-.43-3.507-1.288-4.996-.858-1.49-2.067-2.681-3.626-3.576-1.56-.895-3.214-1.342-4.962-1.342zm17.011 17.21l1.972-1.183c1.388 2.555 2.992 3.833 4.811 3.833a4.62 4.62 0 0 0 2.193-.544c.683-.363 1.204-.849 1.561-1.459a3.77 3.77 0 0 0 .536-1.94c0-.778-.263-1.54-.788-2.287-.726-1.031-2.051-2.271-3.975-3.723-1.936-1.461-3.14-2.518-3.613-3.17-.82-1.094-1.23-2.277-1.23-3.549 0-1.01.242-1.93.726-2.761a5.18 5.18 0 0 1 2.043-1.964 5.889 5.889 0 0 1 2.863-.718c1.094 0 2.116.271 3.068.812.951.542 1.959 1.538 3.021 2.989l-1.893 1.435c-.873-1.156-1.617-1.918-2.232-2.287a3.845 3.845 0 0 0-2.011-.552c-.937 0-1.701.284-2.295.852s-.891 1.268-.891 2.098c0 .505.105.994.315 1.467.21.474.594.989 1.152 1.546.305.294 1.304 1.068 2.997 2.319 2.008 1.483 3.386 2.803 4.132 3.959s1.12 2.319 1.12 3.486c0 1.683-.638 3.144-1.916 4.385s-2.832 1.861-4.662 1.861c-1.409 0-2.687-.376-3.833-1.128-1.147-.751-2.203-2.011-3.171-3.777zm36.868-14.576l-1.83 1.404c-1.01-1.315-2.222-2.311-3.636-2.99-1.415-.678-2.968-1.018-4.662-1.018-1.851 0-3.565.444-5.143 1.333-1.577.888-2.8 2.082-3.667 3.581-.868 1.498-1.302 3.184-1.302 5.056 0 2.829.97 5.19 2.911 7.083 1.94 1.893 4.387 2.839 7.343 2.839 3.25 0 5.968-1.272 8.155-3.817l1.83 1.388a11.693 11.693 0 0 1-4.33 3.415c-1.73.805-3.663 1.207-5.797 1.207-4.059 0-7.262-1.351-9.606-4.054-1.967-2.282-2.95-5.037-2.95-8.266 0-3.397 1.191-6.254 3.573-8.574 2.382-2.319 5.366-3.478 8.952-3.478 2.166 0 4.122.429 5.868 1.286a11.4 11.4 0 0 1 4.291 3.605zm1.391-4.306h2.319v9.732h11.814v-9.732h2.319v23.204h-2.319v-11.2h-11.814v11.2h-2.319v-23.204zm29.919-.584c3.515 0 6.456 1.173 8.824 3.518 2.367 2.345 3.552 5.232 3.552 8.661 0 3.396-1.182 6.278-3.544 8.644s-5.243 3.549-8.642 3.549c-3.441 0-6.346-1.178-8.713-3.534-2.368-2.355-3.551-5.206-3.551-8.55 0-2.229.539-4.295 1.618-6.199 1.079-1.903 2.549-3.394 4.412-4.472a11.863 11.863 0 0 1 6.044-1.617zm.103 2.256c-1.717 0-3.345.447-4.882 1.342-1.538.895-2.739 2.1-3.603 3.615-.864 1.516-1.295 3.205-1.295 5.068 0 2.757.956 5.086 2.868 6.985 1.912 1.9 4.216 2.85 6.913 2.85 1.801 0 3.468-.437 5-1.311a9.38 9.38 0 0 0 3.586-3.583c.858-1.516 1.288-3.2 1.288-5.052 0-1.842-.429-3.507-1.288-4.996-.858-1.49-2.067-2.681-3.626-3.576-1.559-.895-3.212-1.342-4.961-1.342zm24.745-2.256c3.514 0 6.456 1.173 8.823 3.518 2.368 2.345 3.552 5.232 3.552 8.661 0 3.396-1.181 6.278-3.544 8.644-2.362 2.366-5.243 3.549-8.642 3.549-3.441 0-6.346-1.178-8.713-3.534-2.368-2.355-3.551-5.206-3.551-8.55 0-2.229.539-4.295 1.618-6.199 1.078-1.903 2.549-3.394 4.412-4.472a11.869 11.869 0 0 1 6.045-1.617zm.103 2.256c-1.717 0-3.345.447-4.882 1.342-1.538.895-2.739 2.1-3.603 3.615-.864 1.516-1.296 3.205-1.296 5.068 0 2.757.957 5.086 2.868 6.985 1.912 1.9 4.216 2.85 6.913 2.85 1.8 0 3.468-.437 5-1.311a9.38 9.38 0 0 0 3.586-3.583c.859-1.516 1.288-3.2 1.288-5.052 0-1.842-.429-3.507-1.288-4.996-.858-1.49-2.066-2.681-3.625-3.576-1.559-.895-3.213-1.342-4.961-1.342zm13.695-1.672h2.319v20.964h8.928v2.24h-11.247v-23.204z"/></svg>